<svg width="1858" height="464" viewBox="0 0 1858 464" fill="none" xmlns="http://www.w3.org/2000/svg">
<path d="M113.214 459V245.994L0.237815 4.74335H80.8507L173.82 228.93H176.174L270.32 4.74335H292.68L184.412 241.875V459H113.214ZM407.918 227.753C403.799 183.622 386.146 153.612 348.488 153.612C303.768 153.612 277.29 193.036 269.64 243.052H261.991C268.463 180.091 300.826 114.777 378.497 114.777C428.512 114.777 461.464 147.14 470.29 223.045L497.357 459H430.866L414.979 298.363H413.213C400.268 387.213 369.671 461.354 309.064 461.354C274.936 461.354 251.399 438.994 251.399 400.158C251.399 350.143 289.646 314.838 353.784 267.765L407.918 228.341V227.753ZM304.357 361.911C304.357 389.567 317.89 403.689 338.485 403.689C385.558 403.689 409.095 327.195 411.448 262.469L409.095 238.344L389.088 253.055C328.482 296.597 304.357 326.018 304.357 361.911ZM528.846 459V120.661H595.926V233.637C608.871 157.143 645.941 114.777 701.84 114.777C753.621 114.777 781.865 150.67 781.865 225.399V459H714.786V233.049C714.786 182.445 699.487 158.908 668.301 158.908C620.639 158.908 595.926 217.75 595.926 292.478V459H528.846ZM830.984 459V120.661H898.063V459H830.984ZM825.688 38.8714C825.688 16.5116 841.575 0.0360133 864.523 0.0360133C888.06 0.0360133 903.359 16.5116 903.359 38.8714C903.359 61.2312 888.06 78.2953 864.523 78.2953C841.575 78.2953 825.688 61.2312 825.688 38.8714ZM949.241 459V120.661H1016.32V253.643C1037.5 158.908 1083.4 116.542 1132.24 116.542V178.326C1122.82 175.972 1114.59 174.795 1106.35 174.795C1038.68 174.795 1016.32 235.991 1016.32 318.369V459H949.241ZM1269.97 227.753C1265.85 183.622 1248.2 153.612 1210.54 153.612C1165.82 153.612 1139.34 193.036 1131.69 243.052H1124.04C1130.51 180.091 1162.88 114.777 1240.55 114.777C1290.56 114.777 1323.52 147.14 1332.34 223.045L1359.41 459H1292.92L1277.03 298.363H1275.27C1262.32 387.213 1231.72 461.354 1171.12 461.354C1136.99 461.354 1113.45 438.994 1113.45 400.158C1113.45 350.143 1151.7 314.838 1215.84 267.765L1269.97 228.341V227.753ZM1166.41 361.911C1166.41 389.567 1179.94 403.689 1200.54 403.689C1247.61 403.689 1271.15 327.195 1273.5 262.469L1271.15 238.344L1251.14 253.055C1190.53 296.597 1166.41 326.018 1166.41 361.911ZM1485.15 459V4.74335H1591.65C1698.74 4.74335 1740.52 40.6367 1740.52 93.594C1740.52 143.021 1698.74 181.856 1604.59 188.329C1667.55 200.097 1726.98 253.643 1759.94 391.921L1775.23 459H1694.62C1673.44 300.716 1654.61 193.036 1569.29 192.448L1556.34 191.859V459H1485.15ZM1556.34 181.856L1569.29 182.445C1635.19 183.033 1674.62 149.494 1674.62 94.7709C1674.62 41.8135 1644.02 16.5116 1589.29 16.5116H1556.34V181.856ZM1819.09 463.119C1797.32 463.119 1780.85 446.643 1780.85 424.872C1780.85 403.689 1797.32 386.625 1819.09 386.625C1840.87 386.625 1857.34 403.689 1857.34 424.872C1857.34 446.643 1840.87 463.119 1819.09 463.119Z" fill="#2835F8"/>
</svg>
